<svg xmlns="http://www.w3.org/2000/svg" xmlns:xlink="http://www.w3.org/1999/xlink" width="512" zoomAndPan="magnify" viewBox="0 0 384 383.999986" height="512" preserveAspectRatio="xMidYMid meet" version="1.0"><defs><g/><clipPath id="9119ac2298"><path d="M 75 0 L 309 0 C 350.421875 0 384 33.578125 384 75 L 384 309 C 384 350.421875 350.421875 384 309 384 L 75 384 C 33.578125 384 0 350.421875 0 309 L 0 75 C 0 33.578125 33.578125 0 75 0 " clip-rule="nonzero"/></clipPath></defs><g clip-path="url(#9119ac2298)"><rect x="-38.4" width="460.8" fill="#000000" y="-38.399999" height="460.799983" fill-opacity="1"/><path stroke-linecap="butt" transform="matrix(0.75, 0, 0, 0.75, 0.0000072, 0.000000000000021316)" fill="none" stroke-linejoin="miter" d="M 99.999992 -0.000000000000028422 L 411.999997 -0.000000000000028422 C 467.229164 -0.000000000000028422 511.999998 44.770834 511.999998 100.000002 L 511.999998 412.000006 C 511.999998 467.229174 467.229164 512.000008 411.999997 512.000008 L 99.999992 512.000008 C 44.770824 512.000008 -0.0000096 467.229174 -0.0000096 412.000006 L -0.0000096 100.000002 C -0.0000096 44.770834 44.770824 -0.000000000000028422 99.999992 -0.000000000000028422 " stroke="#000000" stroke-width="56" stroke-opacity="1" stroke-miterlimit="4"/></g><g fill="#ffffff" fill-opacity="1"><g transform="translate(179.627338, 272.362783)"><g><path d="M 32.21875 0 C 29.113281 0 26.5 -1.054688 24.375 -3.171875 C 22.257812 -5.296875 21.203125 -7.910156 21.203125 -11.015625 L 21.203125 -154.53125 C 21.203125 -157.78125 22.257812 -160.425781 24.375 -162.46875 C 26.5 -164.519531 29.113281 -165.546875 32.21875 -165.546875 L 70.578125 -165.546875 C 86.546875 -165.546875 100.75 -162.007812 113.1875 -154.9375 C 125.625 -147.875 135.304688 -138.085938 142.234375 -125.578125 C 149.160156 -113.078125 152.625 -98.84375 152.625 -82.875 C 152.625 -66.90625 149.160156 -52.632812 142.234375 -40.0625 C 135.304688 -27.488281 125.625 -17.664062 113.1875 -10.59375 C 100.75 -3.53125 86.546875 0 70.578125 0 Z M 70.578125 -19.5 C 82.304688 -19.5 92.800781 -22.179688 102.0625 -27.546875 C 111.320312 -32.921875 118.53125 -40.445312 123.6875 -50.125 C 128.84375 -59.8125 131.421875 -70.726562 131.421875 -82.875 C 131.421875 -95.03125 128.84375 -105.910156 123.6875 -115.515625 C 118.53125 -125.128906 111.320312 -132.617188 102.0625 -137.984375 C 92.800781 -143.359375 82.304688 -146.046875 70.578125 -146.046875 L 43.234375 -146.046875 L 43.234375 -19.5 Z M 70.578125 -19.5 "/></g></g></g><g fill="#ffffff" fill-opacity="1"><g transform="translate(46.935942, 272.362783)"><g><path d="M 60.40625 2.125 C 50.519531 2.125 41.722656 -0.03125 34.015625 -4.34375 C 26.316406 -8.65625 20.3125 -14.660156 16 -22.359375 C 11.6875 -30.066406 9.53125 -38.863281 9.53125 -48.75 C 9.53125 -52 10.585938 -54.648438 12.703125 -56.703125 C 14.828125 -58.753906 17.445312 -59.78125 20.5625 -59.78125 C 23.8125 -59.78125 26.457031 -58.753906 28.5 -56.703125 C 30.550781 -54.648438 31.578125 -52 31.578125 -48.75 C 31.578125 -39.707031 34.257812 -32.289062 39.625 -26.5 C 45 -20.707031 51.925781 -17.8125 60.40625 -17.8125 C 68.882812 -17.8125 75.84375 -20.707031 81.28125 -26.5 C 86.726562 -32.289062 89.453125 -39.707031 89.453125 -48.75 L 89.453125 -154.53125 C 89.453125 -157.78125 90.472656 -160.425781 92.515625 -162.46875 C 94.566406 -164.519531 97.148438 -165.546875 100.265625 -165.546875 C 103.515625 -165.546875 106.195312 -164.519531 108.3125 -162.46875 C 110.4375 -160.425781 111.5 -157.78125 111.5 -154.53125 L 111.5 -48.75 C 111.5 -38.863281 109.304688 -30.066406 104.921875 -22.359375 C 100.546875 -14.660156 94.503906 -8.65625 86.796875 -4.34375 C 79.097656 -0.03125 70.300781 2.125 60.40625 2.125 Z M 60.40625 2.125 "/></g></g></g><path stroke-linecap="round" transform="matrix(0.752212, -0.000000000000000252, 0.000000000000000251, 0.75, 94.463275, 107.292678)" fill="none" stroke-linejoin="miter" d="M 14.002455 14.000389 L 70.762112 14.000389 " stroke="#ffffff" stroke-width="28" stroke-opacity="1" stroke-miterlimit="4"/></svg>