<svg xmlns="http://www.w3.org/2000/svg" xmlns:xlink="http://www.w3.org/1999/xlink" width="512" zoomAndPan="magnify" viewBox="0 0 384 383.999986" height="512" preserveAspectRatio="xMidYMid meet" version="1.0"><defs><g/><clipPath id="4aec4b86ce"><path d="M 54 0 L 330 0 C 344.320312 0 358.058594 5.6875 368.183594 15.816406 C 378.3125 25.941406 384 39.679688 384 54 L 384 330 C 384 359.824219 359.824219 384 330 384 L 54 384 C 24.175781 384 0 359.824219 0 330 L 0 54 C 0 39.679688 5.6875 25.941406 15.816406 15.816406 C 25.941406 5.6875 39.679688 0 54 0 " clip-rule="nonzero"/></clipPath></defs><g clip-path="url(#4aec4b86ce)"><path stroke-linecap="butt" transform="matrix(0.75, 0, 0, 0.75, 0.0000072, 0.000000000000021316)" fill="none" stroke-linejoin="miter" d="M 71.999991 -0.000000000000028422 L 439.999997 -0.000000000000028422 C 459.093747 -0.000000000000028422 477.411456 7.583333 490.911456 21.088542 C 504.416665 34.588542 511.999998 52.906251 511.999998 72.000001 L 511.999998 440.000007 C 511.999998 479.765632 479.765623 512.000008 439.999997 512.000008 L 71.999991 512.000008 C 32.234366 512.000008 -0.0000096 479.765632 -0.0000096 440.000007 L -0.0000096 72.000001 C -0.0000096 52.906251 7.583324 34.588542 21.088532 21.088542 C 34.588533 7.583333 52.906241 -0.000000000000028422 71.999991 -0.000000000000028422 " stroke="#000000" stroke-width="56" stroke-opacity="1" stroke-miterlimit="4"/></g><g fill="#000000" fill-opacity="1"><g transform="translate(179.627338, 272.362783)"><g><path d="M 32.21875 0 C 29.113281 0 26.5 -1.054688 24.375 -3.171875 C 22.257812 -5.296875 21.203125 -7.910156 21.203125 -11.015625 L 21.203125 -154.53125 C 21.203125 -157.78125 22.257812 -160.425781 24.375 -162.46875 C 26.5 -164.519531 29.113281 -165.546875 32.21875 -165.546875 L 70.578125 -165.546875 C 86.546875 -165.546875 100.75 -162.007812 113.1875 -154.9375 C 125.625 -147.875 135.304688 -138.085938 142.234375 -125.578125 C 149.160156 -113.078125 152.625 -98.84375 152.625 -82.875 C 152.625 -66.90625 149.160156 -52.632812 142.234375 -40.0625 C 135.304688 -27.488281 125.625 -17.664062 113.1875 -10.59375 C 100.75 -3.53125 86.546875 0 70.578125 0 Z M 70.578125 -19.5 C 82.304688 -19.5 92.800781 -22.179688 102.0625 -27.546875 C 111.320312 -32.921875 118.53125 -40.445312 123.6875 -50.125 C 128.84375 -59.8125 131.421875 -70.726562 131.421875 -82.875 C 131.421875 -95.03125 128.84375 -105.910156 123.6875 -115.515625 C 118.53125 -125.128906 111.320312 -132.617188 102.0625 -137.984375 C 92.800781 -143.359375 82.304688 -146.046875 70.578125 -146.046875 L 43.234375 -146.046875 L 43.234375 -19.5 Z M 70.578125 -19.5 "/></g></g></g><g fill="#000000" fill-opacity="1"><g transform="translate(46.935942, 272.362783)"><g><path d="M 60.40625 2.125 C 50.519531 2.125 41.722656 -0.03125 34.015625 -4.34375 C 26.316406 -8.65625 20.3125 -14.660156 16 -22.359375 C 11.6875 -30.066406 9.53125 -38.863281 9.53125 -48.75 C 9.53125 -52 10.585938 -54.648438 12.703125 -56.703125 C 14.828125 -58.753906 17.445312 -59.78125 20.5625 -59.78125 C 23.8125 -59.78125 26.457031 -58.753906 28.5 -56.703125 C 30.550781 -54.648438 31.578125 -52 31.578125 -48.75 C 31.578125 -39.707031 34.257812 -32.289062 39.625 -26.5 C 45 -20.707031 51.925781 -17.8125 60.40625 -17.8125 C 68.882812 -17.8125 75.84375 -20.707031 81.28125 -26.5 C 86.726562 -32.289062 89.453125 -39.707031 89.453125 -48.75 L 89.453125 -154.53125 C 89.453125 -157.78125 90.472656 -160.425781 92.515625 -162.46875 C 94.566406 -164.519531 97.148438 -165.546875 100.265625 -165.546875 C 103.515625 -165.546875 106.195312 -164.519531 108.3125 -162.46875 C 110.4375 -160.425781 111.5 -157.78125 111.5 -154.53125 L 111.5 -48.75 C 111.5 -38.863281 109.304688 -30.066406 104.921875 -22.359375 C 100.546875 -14.660156 94.503906 -8.65625 86.796875 -4.34375 C 79.097656 -0.03125 70.300781 2.125 60.40625 2.125 Z M 60.40625 2.125 "/></g></g></g><path stroke-linecap="round" transform="matrix(0.752212, -0.000000000000000252, 0.000000000000000251, 0.75, 94.463275, 107.292678)" fill="none" stroke-linejoin="miter" d="M 14.002455 14.000389 L 70.762112 14.000389 " stroke="#000000" stroke-width="28" stroke-opacity="1" stroke-miterlimit="4"/></svg>