<?xml version="1.0" standalone="no"?>
<!DOCTYPE svg PUBLIC "-//W3C//DTD SVG 20010904//EN"
 "http://www.w3.org/TR/2001/REC-SVG-20010904/DTD/svg10.dtd">
<svg version="1.0" xmlns="http://www.w3.org/2000/svg"
 width="700.000000pt" height="700.000000pt" viewBox="0 0 700.000000 700.000000"
 preserveAspectRatio="xMidYMid meet">
<metadata>
Created by potrace 1.14, written by Peter Selinger 2001-2017
</metadata>
<g transform="translate(0.000000,700.000000) scale(0.100000,-0.100000)"
fill="#000000" stroke="none">
<path d="M1165 6985 c-199 -32 -372 -97 -535 -202 -315 -204 -525 -514 -607
-893 -17 -81 -18 -197 -18 -2375 0 -1259 3 -2312 7 -2340 57 -383 274 -727
594 -943 135 -91 308 -164 484 -204 l95 -22 2275 -3 c1336 -1 2302 2 2340 7
193 28 395 97 538 186 88 55 77 47 159 114 194 157 352 385 432 626 29 85 34
107 47 183 3 18 9 43 12 55 4 11 8 1047 9 2301 2 2245 2 2282 -18 2390 -76
419 -324 764 -693 969 -108 60 -301 128 -401 142 -22 3 -58 10 -80 15 -22 4
-1039 8 -2300 7 -1777 0 -2277 -3 -2340 -13z m4630 -379 c278 -65 457 -172
608 -364 80 -103 121 -176 161 -292 55 -160 53 -59 53 -2435 1 -2416 3 -2318
-61 -2489 -88 -232 -266 -430 -491 -544 -49 -24 -171 -66 -245 -83 -44 -10
-510 -13 -2275 -14 -1221 -1 -2254 2 -2295 7 -368 43 -692 302 -811 648 -59
174 -56 28 -56 2440 0 1264 3 2233 9 2270 14 104 18 121 44 200 90 268 310
498 577 601 76 29 186 55 257 61 75 7 4497 1 4525 -6z"/>
<path d="M3810 5045 c-54 -13 -108 -58 -131 -109 -18 -39 -18 -94 -19 -1390 0
-1294 1 -1350 19 -1390 25 -55 69 -94 122 -110 33 -9 152 -12 469 -10 234 1
447 4 474 7 77 10 130 18 146 22 8 2 31 7 49 10 128 22 350 116 484 206 451
304 681 836 624 1444 -68 735 -603 1263 -1337 1321 -132 10 -856 10 -900 -1z
m990 -370 c477 -106 789 -449 859 -945 10 -68 7 -325 -3 -395 -48 -310 -219
-595 -453 -753 -116 -79 -219 -123 -378 -164 -71 -18 -120 -21 -421 -25 l-341
-5 0 1155 -1 1156 332 -4 c263 -2 346 -6 406 -20z"/>
<path d="M1871 5039 c-164 -34 -199 -260 -54 -350 38 -24 41 -24 354 -27 l315
-3 -1 -927 -1 -927 -27 -77 c-67 -193 -201 -317 -384 -356 -79 -17 -217 -9
-292 17 -205 71 -329 247 -346 491 -7 100 -12 119 -41 162 -33 51 -94 81 -165
81 -90 -1 -168 -57 -190 -137 -10 -38 -7 -225 4 -243 3 -4 8 -24 11 -43 33
-208 180 -427 368 -553 261 -173 658 -199 951 -64 271 125 448 361 501 667 12
71 15 256 15 1113 1 1114 4 1066 -52 1125 -54 58 -45 57 -509 57 -235 0 -441
-3 -457 -6z"/>
</g>
</svg>
